<svg width="109" height="111" viewBox="0 0 109 111" fill="none" xmlns="http://www.w3.org/2000/svg">
<path d="M83.2342 26.5312L68.8005 40.9351L107.767 41.4922L107.29 2.52468L92.8567 16.9286C71.0645 -4.9088 36.1895 -5.40743 14.9237 15.8143C7.37007 23.3524 2.61362 32.6349 0.541468 42.3942L14.7642 42.5976C16.5389 36.3892 19.9251 30.5448 24.7845 25.6955C40.7097 9.80319 66.9147 10.1779 83.2342 26.5312ZM108.192 68.2838L93.9692 68.0805C92.0971 74.2874 88.8083 80.1332 83.9489 84.9825C68.0237 100.875 41.8187 100.5 25.4992 84.1468L39.933 69.7429L0.966475 69.1858L1.44296 108.153L15.8767 93.7494C37.669 115.587 72.544 116.085 93.8097 94.8637C101.363 87.3257 106.12 78.0431 108.192 68.2838Z" fill="black"/>
</svg>
