<svg width="114" height="36" viewBox="0 0 114 36" fill="none" xmlns="http://www.w3.org/2000/svg">
<path d="M6.99 30.61C5.89 30.61 5.13 30.39 4.71 29.95C4.29 29.53 4.07 28.98 4.05 28.3C4.05 27.72 4.16 27.03 4.38 26.23C4.62 25.41 4.86 24.63 5.1 23.89C5.58 22.47 6.08 21.07 6.6 19.69C7.12 18.31 7.64 16.98 8.16 15.7C8.7 14.42 9.21 13.2 9.69 12.04C10.19 10.88 10.65 9.81 11.07 8.83C9.71 8.85 8.53 8.89 7.53 8.95C6.55 9.01 5.65 9.09 4.83 9.19C4.01 9.27 3.16 9.39 2.28 9.55C2.38 8.71 2.77 8.07 3.45 7.63C4.15 7.17 5.08 6.85 6.24 6.67C7.4 6.49 8.73 6.4 10.23 6.4C11.01 6.4 11.74 6.42 12.42 6.46C13.12 6.48 13.78 6.52 14.4 6.58C15.04 6.64 15.66 6.7 16.26 6.76C17.52 6.88 18.52 6.96 19.26 7C20.02 7.04 20.56 7.06 20.88 7.06C20.28 7.62 19.52 8.03 18.6 8.29C17.7 8.53 16.75 8.68 15.75 8.74C14.75 8.8 13.8 8.83 12.9 8.83C11.94 11.19 11.06 13.64 10.26 16.18C9.46 18.72 8.72 21.23 8.04 23.71C7.78 24.67 7.56 25.49 7.38 26.17C7.22 26.83 7.1 27.44 7.02 28C6.94 28.54 6.9 29.12 6.9 29.74C6.9 29.84 6.9 29.95 6.9 30.07C6.92 30.21 6.95 30.39 6.99 30.61ZM14.8706 28.96C13.9706 28.96 13.3506 28.66 13.0106 28.06C12.6906 27.48 12.5306 26.84 12.5306 26.14C12.5306 25.5 12.6306 24.85 12.8306 24.19C13.0306 23.51 13.3006 22.88 13.6406 22.3C14.0006 21.72 14.3906 21.26 14.8106 20.92C15.2506 20.56 15.6906 20.38 16.1306 20.38C16.2706 20.38 16.4306 20.41 16.6106 20.47C16.8106 20.51 16.9506 20.58 17.0306 20.68C16.7906 20.98 16.5406 21.35 16.2806 21.79C16.0406 22.23 15.8106 22.7 15.5906 23.2C15.3906 23.68 15.2306 24.17 15.1106 24.67C14.9906 25.17 14.9306 25.63 14.9306 26.05C14.9306 26.45 15.0006 26.78 15.1406 27.04C15.3006 27.3 15.5706 27.43 15.9506 27.43C16.3306 27.43 16.7806 27.22 17.3006 26.8C17.8406 26.36 18.3506 25.86 18.8306 25.3C18.1906 24.72 17.7306 24.09 17.4506 23.41C17.1706 22.71 17.0306 21.87 17.0306 20.89C17.0306 20.47 17.1306 19.99 17.3306 19.45C17.5506 18.91 17.8906 18.44 18.3506 18.04C18.8306 17.64 19.4706 17.44 20.2706 17.44C21.1306 17.44 21.7306 17.68 22.0706 18.16C22.4306 18.64 22.6106 19.21 22.6106 19.87C22.6106 20.61 22.4106 21.44 22.0106 22.36C21.6306 23.28 21.1706 24.15 20.6306 24.97C20.8706 25.09 21.1506 25.15 21.4706 25.15C21.7706 25.15 22.1306 25.08 22.5506 24.94C22.9706 24.8 23.3806 24.57 23.7806 24.25C24.1806 23.91 24.5006 23.46 24.7406 22.9L25.2806 23.29C24.8406 24.31 24.2506 25.06 23.5106 25.54C22.7906 26 22.0806 26.23 21.3806 26.23C21.1206 26.23 20.8606 26.21 20.6006 26.17C20.3406 26.11 20.1006 26.04 19.8806 25.96C19.2006 26.76 18.4206 27.46 17.5406 28.06C16.6606 28.66 15.7706 28.96 14.8706 28.96ZM19.6106 24.34C20.0906 23.64 20.5006 22.89 20.8406 22.09C21.1806 21.29 21.3506 20.55 21.3506 19.87C21.3506 19.41 21.2806 19.08 21.1406 18.88C21.0006 18.66 20.7906 18.55 20.5106 18.55C20.1306 18.55 19.7406 18.82 19.3406 19.36C18.9406 19.9 18.7406 20.58 18.7406 21.4C18.7406 21.82 18.8106 22.33 18.9506 22.93C19.1106 23.53 19.3306 24 19.6106 24.34ZM27.5327 29.32C26.2527 29.32 25.2627 28.97 24.5627 28.27C23.8827 27.59 23.5427 26.73 23.5427 25.69C23.5427 24.81 23.7627 23.88 24.2027 22.9C24.6627 21.9 25.2727 20.97 26.0327 20.11C26.7927 19.23 27.6327 18.52 28.5527 17.98C29.4727 17.44 30.3927 17.17 31.3127 17.17C31.8327 17.17 32.3227 17.31 32.7827 17.59C33.2627 17.85 33.5027 18.38 33.5027 19.18C33.5027 19.94 33.2827 20.65 32.8427 21.31C32.4027 21.97 31.8127 22.56 31.0727 23.08C30.3327 23.6 29.5127 24.03 28.6127 24.37C27.7327 24.69 26.8427 24.9 25.9427 25C25.9227 25.08 25.9027 25.17 25.8827 25.27C25.8827 25.35 25.8827 25.49 25.8827 25.69C25.8827 25.79 25.8927 25.97 25.9127 26.23C25.9527 26.47 26.0427 26.73 26.1827 27.01C26.3227 27.29 26.5527 27.53 26.8727 27.73C27.1927 27.93 27.6327 28.03 28.1927 28.03C29.0327 28.03 29.8727 27.8 30.7127 27.34C31.5727 26.86 32.3727 26.23 33.1127 25.45C33.8727 24.67 34.5027 23.8 35.0027 22.84L35.6027 23.32C35.0627 24.52 34.3627 25.57 33.5027 26.47C32.6627 27.37 31.7227 28.07 30.6827 28.57C29.6627 29.07 28.6127 29.32 27.5327 29.32ZM26.2727 23.89C26.7927 23.83 27.3727 23.65 28.0127 23.35C28.6527 23.05 29.2627 22.67 29.8427 22.21C30.4427 21.75 30.9327 21.25 31.3127 20.71C31.6927 20.15 31.8827 19.59 31.8827 19.03C31.8827 18.81 31.8427 18.66 31.7627 18.58C31.6827 18.5 31.5527 18.46 31.3727 18.46C30.9127 18.46 30.4327 18.63 29.9327 18.97C29.4327 19.29 28.9427 19.72 28.4627 20.26C27.9827 20.78 27.5527 21.36 27.1727 22C26.7927 22.64 26.4927 23.27 26.2727 23.89ZM36.6773 28.9C35.7973 28.9 35.1373 28.64 34.6973 28.12C34.2573 27.6 34.0373 26.97 34.0373 26.23C34.0373 25.77 34.1173 25.19 34.2773 24.49C34.4373 23.79 34.6573 23.06 34.9373 22.3C35.2373 21.52 35.5773 20.79 35.9573 20.11C36.3373 19.43 36.7473 18.88 37.1873 18.46C37.6273 18.02 38.0673 17.8 38.5073 17.8C38.7473 17.8 38.9573 17.88 39.1373 18.04C39.3173 18.18 39.4073 18.39 39.4073 18.67C39.4073 18.93 39.2473 19.32 38.9273 19.84C38.6273 20.36 38.2673 20.96 37.8473 21.64C37.4473 22.32 37.0873 23.03 36.7673 23.77C36.4673 24.49 36.3173 25.18 36.3173 25.84C36.3173 26.48 36.4273 26.91 36.6473 27.13C36.8873 27.33 37.2273 27.43 37.6673 27.43C38.3473 27.43 39.0873 27.09 39.8873 26.41C40.6873 25.73 41.5173 24.54 42.3773 22.84L42.8273 23.32C42.1273 25.08 41.2373 26.45 40.1573 27.43C39.0773 28.41 37.9173 28.9 36.6773 28.9ZM40.2173 15.37C39.8373 15.37 39.4873 15.28 39.1673 15.1C38.8673 14.9 38.7173 14.6 38.7173 14.2C38.7173 13.72 38.9773 13.31 39.4973 12.97C40.0173 12.63 40.5573 12.46 41.1173 12.46C41.4773 12.46 41.7773 12.54 42.0173 12.7C42.2773 12.86 42.4073 13.15 42.4073 13.57C42.4073 13.99 42.1773 14.4 41.7173 14.8C41.2573 15.18 40.7573 15.37 40.2173 15.37ZM44.9916 29.68C43.9516 29.68 43.0916 29.35 42.4116 28.69C41.7516 28.05 41.4216 27.06 41.4216 25.72C41.4216 24.74 41.6116 23.78 41.9916 22.84C42.3716 21.9 42.8816 21.06 43.5216 20.32C44.1616 19.56 44.8716 18.96 45.6516 18.52C46.4516 18.08 47.2616 17.86 48.0816 17.86C48.9216 17.86 49.5216 18.07 49.8816 18.49C50.2616 18.91 50.4516 19.4 50.4516 19.96C50.4516 20.52 50.3116 21.07 50.0316 21.61C49.7716 22.13 49.4116 22.39 48.9516 22.39C48.5716 22.39 48.2616 22.2 48.0216 21.82C48.2216 21.68 48.4316 21.42 48.6516 21.04C48.8716 20.66 48.9816 20.17 48.9816 19.57C48.9816 19.41 48.9416 19.29 48.8616 19.21C48.7816 19.11 48.6316 19.06 48.4116 19.06C47.9116 19.06 47.3816 19.29 46.8216 19.75C46.2816 20.19 45.7716 20.77 45.2916 21.49C44.8316 22.19 44.4516 22.94 44.1516 23.74C43.8716 24.52 43.7316 25.24 43.7316 25.9C43.7316 26.46 43.8716 26.98 44.1516 27.46C44.4516 27.92 45.0216 28.15 45.8616 28.15C46.6216 28.15 47.4116 27.93 48.2316 27.49C49.0516 27.05 49.8216 26.44 50.5416 25.66C51.2616 24.86 51.8416 23.91 52.2816 22.81L52.8816 23.35C52.4016 24.57 51.7316 25.66 50.8716 26.62C50.0316 27.56 49.0916 28.3 48.0516 28.84C47.0316 29.4 46.0116 29.68 44.9916 29.68ZM57.3218 30.61C56.6218 30.61 55.9518 30.51 55.3118 30.31C54.6918 30.13 54.1518 29.73 53.6918 29.11C53.7518 28.63 53.8918 27.93 54.1118 27.01C54.3518 26.09 54.6418 25.05 54.9818 23.89C55.3218 22.71 55.6818 21.5 56.0618 20.26C56.4418 19.02 56.8118 17.84 57.1718 16.72C57.5518 15.58 57.8818 14.59 58.1618 13.75C58.4618 12.89 58.6818 12.27 58.8218 11.89C58.8818 11.73 58.9818 11.49 59.1218 11.17C59.2618 10.85 59.4418 10.52 59.6618 10.18C59.8818 9.84 60.1318 9.56 60.4118 9.34C60.7118 9.1 61.0318 8.98 61.3718 8.98C61.7118 8.98 62.0918 9.12 62.5118 9.4C61.8918 10.8 61.2618 12.36 60.6218 14.08C60.0018 15.78 59.4018 17.54 58.8218 19.36C58.2618 21.16 57.7418 22.92 57.2618 24.64C56.8018 26.34 56.4218 27.9 56.1218 29.32C56.2818 29.38 56.5018 29.42 56.7818 29.44C57.0818 29.48 57.3618 29.5 57.6218 29.5C58.9218 29.5 60.1618 29.18 61.3418 28.54C62.5218 27.92 63.6018 27.09 64.5818 26.05C65.5818 24.99 66.4518 23.81 67.1918 22.51C67.9318 21.19 68.5018 19.84 68.9018 18.46C69.3018 17.08 69.5018 15.76 69.5018 14.5C69.5018 12.88 69.2218 11.57 68.6618 10.57C68.1218 9.55 67.3718 8.81 66.4118 8.35C65.4518 7.87 64.3518 7.63 63.1118 7.63C61.8118 7.63 60.6418 7.87 59.6018 8.35C58.5618 8.81 57.7418 9.45 57.1418 10.27C56.5618 11.07 56.2718 11.99 56.2718 13.03C56.2718 13.25 56.2918 13.49 56.3318 13.75C56.3718 13.99 56.4418 14.23 56.5418 14.47C55.6818 14.47 55.0618 14.29 54.6818 13.93C54.3218 13.55 54.1418 13.09 54.1418 12.55C54.1418 11.85 54.3918 11.14 54.8918 10.42C55.4118 9.7 56.1218 9.04 57.0218 8.44C57.9418 7.82 59.0018 7.33 60.2018 6.97C61.4018 6.59 62.7018 6.4 64.1018 6.4C66.0618 6.4 67.6318 6.78 68.8118 7.54C69.9918 8.28 70.8418 9.29 71.3618 10.57C71.9018 11.83 72.1718 13.24 72.1718 14.8C72.1718 16.52 71.8918 18.17 71.3318 19.75C70.7918 21.31 70.0318 22.75 69.0518 24.07C68.0918 25.39 66.9718 26.54 65.6918 27.52C64.4318 28.5 63.0818 29.26 61.6418 29.8C60.2218 30.34 58.7818 30.61 57.3218 30.61ZM74.0838 30.61C74.2038 29.89 74.3338 29.16 74.4738 28.42C74.6338 27.68 74.8238 26.86 75.0438 25.96C75.2838 25.06 75.5738 24.03 75.9138 22.87C76.2738 21.71 76.7038 20.36 77.2038 18.82C76.9038 18.84 76.5738 18.87 76.2138 18.91C75.8738 18.95 75.5538 18.98 75.2538 19C75.2538 18.36 75.4938 17.87 75.9738 17.53C76.4538 17.19 77.0838 16.94 77.8638 16.78C77.9438 16.5 78.0138 16.28 78.0738 16.12C78.1338 15.96 78.2038 15.76 78.2838 15.52C78.3638 15.28 78.4838 14.95 78.6438 14.53C78.8038 14.09 79.0138 13.47 79.2738 12.67C79.5538 11.87 79.9138 10.82 80.3538 9.52C80.3938 9.42 80.4638 9.22 80.5638 8.92C80.6638 8.62 80.7138 8.34 80.7138 8.08C80.7138 7.92 80.6838 7.81 80.6238 7.75C80.5838 7.69 80.4838 7.66 80.3238 7.66C79.9238 7.66 79.5138 7.84 79.0938 8.2C78.6938 8.56 78.3238 9.02 77.9838 9.58C77.6438 10.12 77.3738 10.69 77.1738 11.29C76.9738 11.87 76.8738 12.39 76.8738 12.85C76.8738 13.01 76.8938 13.19 76.9338 13.39C76.9738 13.59 77.0538 13.86 77.1738 14.2C76.3338 14.2 75.7238 14.02 75.3438 13.66C74.9838 13.28 74.8038 12.8 74.8038 12.22C74.8038 11.54 75.0038 10.86 75.4038 10.18C75.8238 9.5 76.3538 8.88 76.9938 8.32C77.6538 7.74 78.3438 7.28 79.0638 6.94C79.8038 6.58 80.4838 6.4 81.1038 6.4C81.7438 6.4 82.1838 6.57 82.4238 6.91C82.6638 7.25 82.7838 7.63 82.7838 8.05C82.7838 8.27 82.7538 8.49 82.6938 8.71C82.6538 8.93 82.6038 9.14 82.5438 9.34L80.3538 16.54C80.5938 16.52 80.8338 16.51 81.0738 16.51C81.3338 16.51 81.5938 16.51 81.8538 16.51C82.8338 16.51 83.7538 16.53 84.6138 16.57C85.4738 16.61 86.3038 16.67 87.1038 16.75C87.6038 15.07 88.0238 13.69 88.3638 12.61C88.7238 11.53 89.0338 10.64 89.2938 9.94C89.5738 9.22 89.8238 8.59 90.0438 8.05C90.1238 7.89 90.2338 7.68 90.3738 7.42C90.5338 7.14 90.7538 6.9 91.0338 6.7C91.3338 6.48 91.7238 6.37 92.2038 6.37C91.9438 7.07 91.6238 8 91.2438 9.16C90.8838 10.3 90.5138 11.55 90.1338 12.91C89.7538 14.25 89.3938 15.58 89.0538 16.9C89.3338 16.9 89.7238 16.92 90.2238 16.96C90.7438 16.98 91.2238 16.99 91.6638 16.99C91.0438 17.61 90.4938 18 90.0138 18.16C89.5338 18.3 89.0938 18.37 88.6938 18.37C88.4738 19.29 88.2738 20.17 88.0938 21.01C87.9138 21.85 87.7638 22.63 87.6438 23.35C87.4038 24.63 87.2238 25.75 87.1038 26.71C87.0038 27.65 86.9538 28.42 86.9538 29.02C86.9538 29.34 86.9638 29.62 86.9838 29.86C87.0238 30.12 87.0638 30.37 87.1038 30.61C86.0838 30.51 85.3838 30.26 85.0038 29.86C84.6438 29.48 84.4638 28.8 84.4638 27.82C84.4638 27.36 84.4938 26.85 84.5538 26.29C84.6338 25.73 84.7638 25.07 84.9438 24.31C85.1038 23.57 85.3238 22.72 85.6038 21.76C85.8838 20.8 86.2238 19.68 86.6238 18.4C85.4038 18.4 84.3938 18.41 83.5938 18.43C82.7938 18.45 82.0938 18.47 81.4938 18.49C80.8938 18.51 80.2938 18.55 79.6938 18.61C79.6738 18.69 79.6238 18.86 79.5438 19.12C79.4638 19.38 79.3238 19.84 79.1238 20.5C78.9238 21.16 78.6238 22.13 78.2238 23.41C77.8238 24.69 77.2838 26.41 76.6038 28.57C76.3838 29.31 76.0038 29.83 75.4638 30.13C74.9238 30.45 74.4638 30.61 74.0838 30.61ZM108.586 31.57C107.626 31.57 106.726 31.32 105.886 30.82C105.066 30.34 104.276 29.79 103.516 29.17C103.016 29.41 102.496 29.59 101.956 29.71C101.436 29.85 100.886 29.92 100.306 29.92C99.5264 29.92 98.8964 29.81 98.4164 29.59C97.9564 29.39 97.6064 29.14 97.3664 28.84C97.1264 28.54 96.9564 28.24 96.8564 27.94C96.7764 27.64 96.7364 27.4 96.7364 27.22C96.7364 26.82 96.9164 26.41 97.2764 25.99C97.6364 25.57 98.2764 25.36 99.1964 25.36C100.036 25.36 100.856 25.55 101.656 25.93C102.456 26.29 103.286 26.72 104.146 27.22C105.006 26.44 105.766 25.47 106.426 24.31C107.106 23.13 107.676 21.88 108.136 20.56C108.596 19.22 108.946 17.91 109.186 16.63C109.426 15.33 109.546 14.16 109.546 13.12C109.546 11.5 109.226 10.18 108.586 9.16C107.946 8.14 106.896 7.63 105.436 7.63C104.276 7.63 103.196 7.96 102.196 8.62C101.196 9.26 100.296 10.13 99.4964 11.23C98.7164 12.31 98.0364 13.53 97.4564 14.89C96.8964 16.25 96.4664 17.66 96.1664 19.12C95.8664 20.56 95.7164 21.95 95.7164 23.29C95.7164 23.69 95.7364 24.15 95.7764 24.67C95.8364 25.17 95.9364 25.71 96.0764 26.29C95.3164 26.29 94.7164 26.09 94.2764 25.69C93.8564 25.27 93.5564 24.73 93.3764 24.07C93.2164 23.41 93.1364 22.71 93.1364 21.97C93.1364 20.49 93.3364 19.01 93.7364 17.53C94.1364 16.03 94.6964 14.62 95.4164 13.3C96.1564 11.96 97.0364 10.77 98.0564 9.73C99.0764 8.69 100.206 7.88 101.446 7.3C102.706 6.7 104.036 6.4 105.436 6.4C107.496 6.4 109.126 7.06 110.326 8.38C111.526 9.7 112.126 11.52 112.126 13.84C112.126 15.06 111.956 16.33 111.616 17.65C111.296 18.97 110.836 20.27 110.236 21.55C109.636 22.83 108.926 24.02 108.106 25.12C107.306 26.22 106.426 27.16 105.466 27.94C106.126 28.26 106.816 28.53 107.536 28.75C108.256 28.99 108.996 29.11 109.756 29.11C110.276 29.11 110.656 29.06 110.896 28.96C111.136 28.86 111.466 28.76 111.886 28.66C111.646 29.5 111.326 30.13 110.926 30.55C110.546 30.97 110.146 31.24 109.726 31.36C109.326 31.5 108.946 31.57 108.586 31.57ZM99.7664 29.02C100.306 29.02 100.806 28.93 101.266 28.75C101.726 28.59 102.116 28.44 102.436 28.3C101.856 27.82 101.266 27.4 100.666 27.04C100.086 26.68 99.4864 26.5 98.8664 26.5C98.4664 26.5 98.1564 26.59 97.9364 26.77C97.7364 26.93 97.6364 27.15 97.6364 27.43C97.6364 27.63 97.6964 27.85 97.8164 28.09C97.9564 28.35 98.1764 28.57 98.4764 28.75C98.7964 28.93 99.2264 29.02 99.7664 29.02Z" fill="white"/>
</svg>
